<?xml version="1.0" encoding="UTF-8" standalone="no"?>
<!-- Created with Inkscape (http://www.inkscape.org/) -->

<svg
   xmlns:dc="http://purl.org/dc/elements/1.1/"
   xmlns:cc="http://creativecommons.org/ns#"
   xmlns:rdf="http://www.w3.org/1999/02/22-rdf-syntax-ns#"
   xmlns:svg="http://www.w3.org/2000/svg"
   xmlns="http://www.w3.org/2000/svg"
   xmlns:sodipodi="http://sodipodi.sourceforge.net/DTD/sodipodi-0.dtd"
   xmlns:inkscape="http://www.inkscape.org/namespaces/inkscape"
   width="210mm"
   height="57.858883mm"
   viewBox="0 0 744.09449 205.01179"
   id="svg4510"
   version="1.1"
   inkscape:version="0.91 r13725"
   sodipodi:docname="Nikimember white.svg">
  <defs
     id="defs4512" />
  <sodipodi:namedview
     id="base"
     pagecolor="#ffffff"
     bordercolor="#666666"
     borderopacity="1.0"
     inkscape:pageopacity="0.0"
     inkscape:pageshadow="2"
     inkscape:zoom="0.54115914"
     inkscape:cx="223.14157"
     inkscape:cy="12.987465"
     inkscape:document-units="px"
     inkscape:current-layer="layer1"
     showgrid="false"
     inkscape:window-width="1680"
     inkscape:window-height="977"
     inkscape:window-x="1920"
     inkscape:window-y="25"
     inkscape:window-maximized="1"
     fit-margin-top="2"
     fit-margin-left="2"
     fit-margin-right="2"
     fit-margin-bottom="2" />
  <metadata
     id="metadata4515">
    <rdf:RDF>
      <cc:Work
         rdf:about="">
        <dc:format>image/svg+xml</dc:format>
        <dc:type
           rdf:resource="http://purl.org/dc/dcmitype/StillImage" />
        <dc:title></dc:title>
      </cc:Work>
    </rdf:RDF>
  </metadata>
  <g
     inkscape:label="Layer 1"
     inkscape:groupmode="layer"
     id="layer1"
     transform="translate(7.0866286,-854.43705)">
    <g
       transform="matrix(2.0959639,0,0,2.0959639,-5524.351,-4245.9197)"
       id="g11499"
       style="fill:#ffffff">
      <path
         inkscape:export-ydpi="90"
         inkscape:export-xdpi="90"
         inkscape:export-filename="C:\Users\Petter\Documents\6. Nikimember\Bilder &amp; Logos\logo sloganDD6767 .png"
         style="fill:#ffffff;fill-opacity:1;fill-rule:nonzero;stroke:none"
         d="m 2818.767,2513.7303 0,-17.5475 c 0,-1.8304 -0.2321,-3.1087 -0.7259,-3.8932 -0.4939,-0.7844 -1.3074,-1.1619 -2.4405,-1.1619 -0.9586,0 -1.8594,0.2903 -2.76,0.9005 -0.9006,0.6101 -1.8303,1.5107 -2.7599,2.7018 l 0,11.9405 c 0,4.7065 -7.6991,7.0598 -7.6991,7.0598 l 0,-17.5475 c 0,-1.8304 -0.2614,-3.1087 -0.7264,-3.8932 -0.4938,-0.7844 -1.2781,-1.1619 -2.3822,-1.1619 -0.9298,0 -1.8884,0.2903 -2.8181,0.9005 -0.9297,0.6101 -1.8304,1.5107 -2.7019,2.7018 l 0,11.737 c 0,5.6362 -7.7862,7.2633 -7.7862,7.2633 l 0,-27.9193 7.5247,0 0,3.5153 c 2.3243,-2.76 5.0262,-4.1546 8.0476,-4.1546 2.0046,0 3.6316,0.4067 4.9099,1.2202 1.2493,0.7845 2.208,2.0338 2.8182,3.7188 1.2782,-1.5689 2.6146,-2.76 4.0092,-3.6315 1.3656,-0.8717 2.9054,-1.3075 4.5613,-1.3075 5.8101,0 8.7154,3.4283 8.7154,10.3138 l 0,11.3011 c 0,4.7065 -7.7861,6.9437 -7.7861,6.9437 z"
         id="path9347"
         inkscape:connector-curvature="0" />
      <path
         inkscape:export-ydpi="90"
         inkscape:export-xdpi="90"
         inkscape:export-filename="C:\Users\Petter\Documents\6. Nikimember\Bilder &amp; Logos\logo sloganDD6767 .png"
         style="fill:#ffffff;fill-opacity:1;fill-rule:nonzero;stroke:none"
         d="m 2850.5798,2496.7347 c -0.2905,-2.4694 -0.9879,-4.2997 -2.1499,-5.5199 -1.1331,-1.1913 -2.6148,-1.8015 -4.4161,-1.8015 -1.7722,0 -3.2538,0.6102 -4.3869,1.8015 -1.133,1.2202 -1.8594,3.0505 -2.15,5.5199 l 13.1029,0 z m -6.1593,17.6346 c -2.3242,0 -4.3869,-0.3195 -6.1591,-1.0167 -1.8013,-0.6682 -3.312,-1.6561 -4.5613,-2.9055 -1.2202,-1.2781 -2.1499,-2.8179 -2.8181,-4.6483 -0.6392,-1.8302 -0.9588,-3.8639 -0.9588,-6.1588 0,-2.3242 0.3196,-4.387 0.9588,-6.2173 0.6392,-1.8304 1.5688,-3.3701 2.76,-4.6484 1.2202,-1.2493 2.7019,-2.2371 4.4451,-2.8762 1.7141,-0.6683 3.7188,-1.017 5.9267,-1.017 2.1499,0 4.0674,0.3198 5.7815,0.9588 1.7142,0.6393 3.1958,1.5689 4.4161,2.8182 1.2202,1.2202 2.1498,2.7599 2.789,4.5612 0.6682,1.8305 0.9878,3.8931 0.9878,6.2173 l 0,1.7432 -20.5693,0 c 0.059,1.4814 0.2905,2.7596 0.6682,3.8347 0.3486,1.0458 0.8425,1.9464 1.4817,2.6147 0.61,0.6682 1.3364,1.1911 2.1498,1.5106 0.8136,0.3198 1.7433,0.4358 2.7019,0.494 1.598,0.088 3.8641,0.2324 5.9269,-1.7431 2.5565,-2.4987 7.0598,-2.6148 7.0598,-2.6148 -0.2615,1.4525 -0.7554,2.76 -1.5108,3.8931 -0.7263,1.1331 -1.656,2.0917 -2.7891,2.8762 -1.1331,0.7553 -2.4114,1.3654 -3.893,1.7432 -1.4527,0.4066 -3.0506,0.5809 -4.7938,0.5809"
         id="path9349"
         inkscape:connector-curvature="0" />
      <path
         inkscape:export-ydpi="90"
         inkscape:export-xdpi="90"
         inkscape:export-filename="C:\Users\Petter\Documents\6. Nikimember\Bilder &amp; Logos\logo sloganDD6767 .png"
         style="fill:#ffffff;fill-opacity:1;fill-rule:nonzero;stroke:none"
         d="m 2894.1585,2513.9046 0,-17.5475 c 0,-1.8303 -0.2324,-3.1087 -0.7263,-3.8932 -0.4939,-0.7845 -1.3073,-1.162 -2.4404,-1.162 -0.9588,0 -1.8594,0.2904 -2.76,0.9005 -0.9007,0.6102 -1.8303,1.5109 -2.7601,2.7019 l 0,11.9405 c 0,4.7065 -7.699,7.0598 -7.699,7.0598 l 0,-17.5475 c 0,-1.8303 -0.2614,-3.1087 -0.7263,-3.8932 -0.4938,-0.7845 -1.2783,-1.162 -2.3823,-1.162 -0.9297,0 -1.8884,0.2904 -2.8181,0.9005 -0.9293,0.6102 -1.83,1.5109 -2.7016,2.7019 l 0,11.7662 c 0,5.6071 -7.786,7.2341 -7.786,7.2341 l 0,-27.9194 7.5246,0 0,3.5153 c 2.3238,-2.7599 5.0258,-4.1544 8.0472,-4.1544 2.0047,0 3.6316,0.4066 4.91,1.2202 1.2492,0.7844 2.208,2.0337 2.8181,3.7187 1.2782,-1.5397 2.6147,-2.76 4.0093,-3.6316 1.3654,-0.8716 2.9052,-1.3073 4.5613,-1.3073 5.8105,0 8.7157,3.4572 8.7157,10.3137 l 0,11.3011 c 0,4.7066 -7.7861,6.9437 -7.7861,6.9437 z"
         id="path9351"
         inkscape:connector-curvature="0" />
      <path
         inkscape:export-ydpi="90"
         inkscape:export-xdpi="90"
         inkscape:export-filename="C:\Users\Petter\Documents\6. Nikimember\Bilder &amp; Logos\logo sloganDD6767 .png"
         style="fill:#ffffff;fill-opacity:1;fill-rule:nonzero;stroke:none"
         d="m 2956.2438,2496.5604 c -0.2905,-2.4695 -1.0168,-4.2997 -2.1498,-5.52 -1.1331,-1.1912 -2.6148,-1.8014 -4.4161,-1.8014 -1.8013,0 -3.2538,0.6102 -4.387,1.8014 -1.1621,1.2203 -1.8593,3.0505 -2.1498,5.52 l 13.1027,0 z m -6.1591,17.6346 c -2.3243,0 -4.387,-0.3195 -6.1882,-1.0168 -1.8013,-0.6681 -3.312,-1.656 -4.5324,-2.9343 -1.2201,-1.2493 -2.1789,-2.789 -2.8179,-4.6194 -0.6683,-1.8302 -0.9879,-3.893 -0.9879,-6.1588 0,-2.3242 0.3196,-4.4159 0.9587,-6.2173 0.6392,-1.8304 1.569,-3.3701 2.7891,-4.6484 1.2202,-1.2784 2.6728,-2.2371 4.416,-2.9053 1.7431,-0.6393 3.7187,-0.9878 5.9558,-0.9878 2.1209,0 4.0384,0.3197 5.7816,0.9587 1.7141,0.6392 3.1667,1.5688 4.3869,2.8182 1.2202,1.2201 2.15,2.7599 2.8181,4.5613 0.6392,1.8303 0.9878,3.893 0.9878,6.2172 l 0,1.7431 -20.5694,0 c 0.059,1.4814 0.2616,2.7598 0.6392,3.8347 0.3778,1.0459 0.8716,1.9175 1.4817,2.6148 0.6101,0.6682 1.3364,1.1911 2.179,1.5107 0.8135,0.3196 1.7141,0.4357 2.7019,0.494 1.5979,0.088 3.8639,0.2323 5.8977,-1.7723 2.5857,-2.4986 7.0888,-2.5857 7.0888,-2.5857 -0.2905,1.4527 -0.7843,2.76 -1.5106,3.893 -0.7555,1.1331 -1.6852,2.0918 -2.7891,2.8472 -1.1331,0.7843 -2.4405,1.3656 -3.8931,1.7723 -1.4817,0.3776 -3.0796,0.5809 -4.7937,0.5809"
         id="path9353"
         inkscape:connector-curvature="0" />
      <path
         inkscape:export-ydpi="90"
         inkscape:export-xdpi="90"
         inkscape:export-filename="C:\Users\Petter\Documents\6. Nikimember\Bilder &amp; Logos\logo sloganDD6767 .png"
         style="fill:#ffffff;fill-opacity:1;fill-rule:nonzero;stroke:none"
         d="m 2983.9599,2492.5511 c -0.6101,-0.2615 -1.2203,-0.4648 -1.7723,-0.6101 -0.552,-0.1167 -1.3074,-0.2032 -2.266,-0.2032 -0.988,0 -1.8595,0.2614 -2.6729,0.7552 -0.8136,0.4938 -1.6266,1.2493 -2.4111,2.2952 l 0,13.2477 c 0,4.2707 -7.1179,6.3334 -7.1179,6.3334 l 0,-28.907 7.1179,0 0,1.656 c 1.7719,-1.5688 3.6893,-2.3533 5.8103,-2.3533 0.3776,0 0.8425,0.029 1.3654,0.086 0.5229,0.058 1.1911,0.1743 1.9466,0.3196 l 0,7.3793 z"
         id="path9355"
         inkscape:connector-curvature="0" />
      <path
         inkscape:export-ydpi="90"
         inkscape:export-xdpi="90"
         inkscape:export-filename="C:\Users\Petter\Documents\6. Nikimember\Bilder &amp; Logos\logo sloganDD6767 .png"
         style="fill:#ffffff;fill-opacity:1;fill-rule:nonzero;stroke:none"
         d="m 2730.9123,2514.137 0,-28.2389 7.4956,0 0,22.5155 c 0,4.2708 -7.4956,5.7234 -7.4956,5.7234 z"
         id="path9357"
         inkscape:connector-curvature="0" />
      <path
         inkscape:export-ydpi="90"
         inkscape:export-xdpi="90"
         inkscape:export-filename="C:\Users\Petter\Documents\6. Nikimember\Bilder &amp; Logos\logo sloganDD6767 .png"
         style="fill:#ffffff;fill-opacity:1;fill-rule:nonzero;stroke:none"
         d="m 2770.5979,2514.137 -8.2215,0 -7.9024,-13.5091 -2.5277,2.3237 0,3.2831 c 0,6.3334 -7.3502,7.9023 -7.3502,7.9023 l 0,-39.0176 7.3502,0 0,21.9349 9.4423,-11.1562 8.3377,0 -9.7903,10.9238 10.6619,17.3151 z"
         id="path9359"
         inkscape:connector-curvature="0" />
      <path
         inkscape:export-ydpi="90"
         inkscape:export-xdpi="90"
         inkscape:export-filename="C:\Users\Petter\Documents\6. Nikimember\Bilder &amp; Logos\logo sloganDD6767 .png"
         style="fill:#ffffff;fill-opacity:1;fill-rule:nonzero;stroke:none"
         d="m 2774.6653,2514.137 0,-28.2389 7.4665,0 0,22.5155 c 0,4.2708 -7.4665,5.7234 -7.4665,5.7234 z"
         id="path9361"
         inkscape:connector-curvature="0" />
      <path
         inkscape:export-ydpi="90"
         inkscape:export-xdpi="90"
         inkscape:export-filename="C:\Users\Petter\Documents\6. Nikimember\Bilder &amp; Logos\logo sloganDD6767 .png"
         style="fill:#ffffff;fill-opacity:1;fill-rule:nonzero;stroke:none"
         d="m 2738.6983,2479.1577 c 0,2.2372 -1.8011,4.0385 -4.0382,4.0385 -2.2372,0 -4.0384,-1.8013 -4.0384,-4.0385 0,-2.2369 4.0384,-4.0383 4.0384,-4.0383 0,0 4.0382,1.8014 4.0382,4.0383 z"
         id="path9363"
         inkscape:connector-curvature="0" />
      <path
         inkscape:export-ydpi="90"
         inkscape:export-xdpi="90"
         inkscape:export-filename="C:\Users\Petter\Documents\6. Nikimember\Bilder &amp; Logos\logo sloganDD6767 .png"
         style="fill:#ffffff;fill-opacity:1;fill-rule:nonzero;stroke:none"
         d="m 2782.4515,2479.1577 c 0,2.2372 -1.8303,4.0385 -4.0384,4.0385 -2.2371,0 -4.0383,-1.8013 -4.0383,-4.0385 0,-2.2369 4.0383,-4.0383 4.0383,-4.0383 0,0 4.0384,1.8014 4.0384,4.0383 z"
         id="path9365"
         inkscape:connector-curvature="0" />
      <path
         inkscape:export-ydpi="90"
         inkscape:export-xdpi="90"
         inkscape:export-filename="C:\Users\Petter\Documents\6. Nikimember\Bilder &amp; Logos\logo sloganDD6767 .png"
         style="fill:#ffffff;fill-opacity:1;fill-rule:nonzero;stroke:none"
         d="m 2637.9731,2468.2921 -0.6101,1.9465 c 0.086,-0.2323 0.1744,-0.4358 0.2326,-0.6682 l 0.3775,-1.2783 z"
         id="path9367"
         inkscape:connector-curvature="0" />
      <path
         inkscape:export-ydpi="90"
         inkscape:export-xdpi="90"
         inkscape:export-filename="C:\Users\Petter\Documents\6. Nikimember\Bilder &amp; Logos\logo sloganDD6767 .png"
         style="fill:#ffffff;fill-opacity:1;fill-rule:nonzero;stroke:none"
         d="m 2666.619,2481.9178 c -0.2905,1.9757 -0.5519,3.806 -0.7845,5.5491 l -0.029,0.2615 c -0.029,0.2324 -0.058,0.4648 -0.086,0.6973 -0.029,0.2324 -0.058,0.4647 -0.086,0.6973 0,0.088 -0.029,0.1742 -0.029,0.2614 -0.4358,3.6607 -0.6391,6.7984 -0.6972,9.5875 0,0.2324 0,0.4358 0,0.6681 0,0.029 0,0.058 0,0.1168 -0.029,2.4689 0.086,4.7932 0.3196,7.1465 0.029,0.1451 0.029,0.2615 0.058,0.4067 0,0.087 0,0.1453 0.029,0.2325 0.1167,1.162 0.2904,2.3241 0.4647,3.4572 2.9053,0.5521 4.3289,0.8136 6.7984,1.2492 1.0168,0.1745 2.2079,0.3777 3.7768,0.6683 0.581,-7.8152 1.5107,-13.4511 3.9511,-26.8154 0.029,-0.029 0.029,-0.086 0.029,-0.1167 0.086,-0.4357 0.1743,-0.9007 0.2615,-1.3656 -1.4527,-0.2615 -2.6729,-0.4938 -3.7478,-0.6972 -3.8349,-0.7263 -5.6941,-1.0749 -10.2264,-2.0047 z"
         id="path9369"
         inkscape:connector-curvature="0" />
      <path
         inkscape:export-ydpi="90"
         inkscape:export-xdpi="90"
         inkscape:export-filename="C:\Users\Petter\Documents\6. Nikimember\Bilder &amp; Logos\logo sloganDD6767 .png"
         style="fill:#ffffff;fill-opacity:1;fill-rule:nonzero;stroke:none"
         d="m 2662.5516,2506.7284 c -0.029,-0.145 -0.058,-0.2614 -0.058,-0.4066 -0.3777,-2.5275 -0.581,-5.1129 -0.61,-8.0763 0,-0.2035 0,-0.4359 0,-0.6393 l 0,-0.1451 c 0.029,-2.7019 0.2033,-5.5783 0.5229,-8.745 0.029,-0.1453 0.029,-0.2904 0.058,-0.4647 0,-0.1454 0.029,-0.3197 0.058,-0.494 0.029,-0.2615 0.058,-0.5519 0.086,-0.8425 l 0,-0.088 c 0.2323,-1.7432 0.4648,-3.6026 0.7844,-5.5781 -1.0459,-0.2324 -1.9466,-0.4358 -2.76,-0.6102 0,0 -0.029,0 -0.029,0 -0.1453,-0.029 -0.2615,-0.058 -0.3777,-0.086 -0.1743,-0.029 -0.3195,-0.088 -0.4939,-0.1166 -0.029,0 -0.058,0 -0.086,0 -0.2325,-0.058 -0.4358,-0.1167 -0.6392,-0.1453 0,-0.029 -0.029,-0.029 -0.029,-0.029 -0.2324,-0.029 -0.4358,-0.086 -0.6391,-0.1452 -0.028,0 -0.088,0 -0.1167,-0.029 -0.1743,-0.029 -0.3196,-0.058 -0.494,-0.086 -0.086,-0.029 -0.1743,-0.058 -0.2614,-0.088 -0.1167,0 -0.2324,-0.029 -0.3196,-0.058 -0.1452,-0.028 -0.2615,-0.058 -0.3777,-0.086 -0.086,-0.029 -0.1452,-0.029 -0.2033,-0.058 -0.1743,-0.029 -0.3485,-0.088 -0.523,-0.1167 -0.029,0 -0.029,0 -0.058,0 -0.1742,-0.058 -0.3777,-0.1167 -0.581,-0.1452 0,0 0,0 0,0 -0.1743,-0.058 -0.3776,-0.086 -0.552,-0.1454 -0.029,0 -0.058,0 -0.086,-0.028 -0.1454,-0.029 -0.2907,-0.058 -0.4358,-0.086 -0.086,-0.029 -0.1744,-0.058 -0.2325,-0.058 -0.086,-0.029 -0.1453,-0.029 -0.2033,-0.058 -0.6101,-0.1452 -1.2783,-0.3195 -2.0338,-0.523 -0.4647,3.0797 -0.8133,5.8977 -0.9877,8.5416 0,0.028 0,0.028 0,0.058 -0.028,0.6391 -0.058,1.2493 -0.086,1.8885 0,0.029 0,0.086 0,0.1452 -0.028,0.523 -0.028,1.075 -0.058,1.598 0,0.088 0,0.1742 0,0.2323 0,0.5521 0.029,1.104 0.029,1.627 0,0.086 0,0.1453 0,0.2324 0.028,0.5811 0.058,1.1331 0.086,1.685 l 0,0.058 c 0.2324,3.5152 0.8134,6.827 1.7721,10.2262 0.029,0.1167 0.086,0.2323 0.1166,0.3487 0.1168,0.4066 0.2326,0.8133 0.3779,1.2201 0.029,0.2033 0.088,0.3777 0.1451,0.5519 0.1744,0.494 0.3486,1.0169 0.523,1.5399 0.6392,0.1452 1.1911,0.2616 1.685,0.3777 0.058,0 0.1167,0.029 0.1453,0.029 0.058,0.029 0.1167,0.029 0.1743,0.058 0.1452,0.029 0.2614,0.058 0.4067,0.088 0,0 0.029,0 0.029,0 0.1743,0.029 0.3197,0.058 0.4648,0.1167 l 0.058,0 c 0.1453,0.029 0.2906,0.058 0.4358,0.086 l 0.086,0.029 c 0.1167,0.029 0.2615,0.058 0.4067,0.088 0.029,0 0.086,0.029 0.1454,0.029 l 0.3195,0.058 c 0.086,0.029 0.1452,0.058 0.2324,0.058 0.086,0.029 0.1743,0.029 0.2614,0.058 0.1167,0.029 0.2326,0.058 0.3487,0.086 0.058,0 0.086,0 0.1454,0.029 0.1167,0.029 0.2613,0.058 0.4066,0.088 0.058,0 0.086,0 0.1452,0.029 0.1167,0.029 0.2615,0.029 0.3778,0.058 0.086,0.029 0.1453,0.029 0.2323,0.058 0.086,0 0.1744,0.028 0.2616,0.058 0.7553,0.1453 1.6269,0.3197 2.6727,0.523 -0.2615,-1.1911 -0.4647,-2.3533 -0.639,-3.5444 0,-0.058 -0.029,-0.1453 -0.029,-0.2324 z"
         id="path9371"
         inkscape:connector-curvature="0" />
      <path
         inkscape:export-ydpi="90"
         inkscape:export-xdpi="90"
         inkscape:export-filename="C:\Users\Petter\Documents\6. Nikimember\Bilder &amp; Logos\logo sloganDD6767 .png"
         style="fill:#ffffff;fill-opacity:1;fill-rule:nonzero;stroke:none"
         d="m 2638.0022,2468.3793 c 0,-0.029 0,-0.058 -0.029,-0.086 0.029,0.028 0.029,0.058 0.029,0.1167 0,0 0,0 0,-0.029 z"
         id="path9373"
         inkscape:connector-curvature="0" />
      <path
         inkscape:export-ydpi="90"
         inkscape:export-xdpi="90"
         inkscape:export-filename="C:\Users\Petter\Documents\6. Nikimember\Bilder &amp; Logos\logo sloganDD6767 .png"
         style="fill:#ffffff;fill-opacity:1;fill-rule:nonzero;stroke:none"
         d="m 2650.8727,2505.7118 c -0.029,-0.086 -0.058,-0.2035 -0.086,-0.2907 -2.2953,-6.9142 -2.9635,-13.3348 -2.179,-21.4405 0.028,-0.494 0.087,-0.9878 0.1451,-1.4817 0.029,-0.1166 0.029,-0.2325 0.058,-0.3197 0.1455,-1.3654 0.3488,-2.7891 0.5813,-4.2707 -2.0338,-0.6101 -3.283,-0.9877 -4.387,-1.3364 -1.104,-0.3776 -2.0336,-0.7264 -3.4573,-1.3073 -0.5518,3.0214 -0.9005,5.8105 -1.0748,8.4253 0,0.058 0,0.086 0,0.1166 -0.028,0.6101 -0.058,1.1911 -0.086,1.8013 0,0.086 0,0.1742 0,0.2614 0,0.4938 0,0.9878 0,1.4817 0,0.1167 0,0.2324 0,0.3486 0.029,0.5229 0.029,1.0459 0.058,1.5689 0,0.086 0.029,0.1743 0.029,0.2615 0.028,0.581 0.088,1.133 0.1452,1.714 0,0.029 0,0.058 0,0.086 0.3777,3.5735 1.2202,7.0309 2.5856,10.6331 0.029,0.1166 0.086,0.2323 0.1167,0.3486 0.1743,0.4358 0.3486,0.9006 0.523,1.3363 0.086,0.1744 0.1743,0.3777 0.2323,0.552 0.2325,0.5522 0.4649,1.104 0.7263,1.6561 0.4068,0.1452 0.7554,0.2615 1.104,0.3776 0.029,0.029 0.086,0.058 0.1454,0.058 0.029,0.029 0.058,0.029 0.086,0.029 0.086,0.029 0.2033,0.088 0.2905,0.1167 0,0 0,0 0,0 0.3777,0.1167 0.6973,0.2325 1.0458,0.3486 0.029,0 0.029,0 0.058,0 0.086,0.029 0.1744,0.058 0.2907,0.1167 0.029,0 0.086,0 0.1167,0.029 0.086,0.029 0.1452,0.029 0.2324,0.058 0.058,0.028 0.1452,0.058 0.2034,0.058 0.058,0.029 0.1166,0.058 0.1742,0.058 0.086,0.029 0.1453,0.058 0.2324,0.058 0.058,0.029 0.1166,0.058 0.1743,0.058 0.086,0.029 0.1452,0.058 0.2324,0.058 0.086,0.029 0.1453,0.058 0.2325,0.088 0.058,0 0.086,0 0.1167,0.029 0.6101,0.1453 1.2783,0.3486 2.1498,0.5811 -0.1743,-0.4648 -0.3485,-0.9588 -0.5229,-1.4236 -0.086,-0.2906 -0.1743,-0.5521 -0.2906,-0.8425 z"
         id="path9375"
         inkscape:connector-curvature="0" />
      <path
         inkscape:export-ydpi="90"
         inkscape:export-xdpi="90"
         inkscape:export-filename="C:\Users\Petter\Documents\6. Nikimember\Bilder &amp; Logos\logo sloganDD6767 .png"
         style="fill:#ffffff;fill-opacity:1;fill-rule:nonzero;stroke:none"
         d="m 2643.5513,2507.3095 c -0.058,-0.029 -0.1166,-0.086 -0.1743,-0.1167 -0.086,-0.058 -0.1743,-0.1452 -0.2614,-0.2034 3.6315,5.5491 8.1056,9.6746 12.6088,12.6961 -0.2326,-0.1744 -0.4358,-0.3195 -0.6684,-0.4939 -0.086,-0.058 -0.1743,-0.1452 -0.2614,-0.2035 -0.1453,-0.1166 -0.2904,-0.2323 -0.4358,-0.3486 -3.1958,-2.5855 -6.3044,-5.9557 -9.2095,-10.4589 -0.7264,-0.3487 -1.2203,-0.6101 -1.5689,-0.8425 0,0 -0.029,-0.029 -0.029,-0.029 z"
         id="path9377"
         inkscape:connector-curvature="0" />
      <path
         inkscape:export-ydpi="90"
         inkscape:export-xdpi="90"
         inkscape:export-filename="C:\Users\Petter\Documents\6. Nikimember\Bilder &amp; Logos\logo sloganDD6767 .png"
         style="fill:#ffffff;fill-opacity:1;fill-rule:nonzero;stroke:none"
         d="m 2679.373,2436.9153 c 0.2906,-0.029 0.6102,-0.029 0.9006,-0.058 0,0 -0.029,0 -0.029,0 0.086,0 0.2034,0 0.2907,0 0.2323,-0.029 0.4357,-0.029 0.6681,-0.058 -0.2324,0 -0.4648,0.028 -0.6973,0.028 -0.3486,0.029 -0.7262,0.058 -1.1331,0.088 z"
         id="path9379"
         inkscape:connector-curvature="0" />
      <path
         inkscape:export-ydpi="90"
         inkscape:export-xdpi="90"
         inkscape:export-filename="C:\Users\Petter\Documents\6. Nikimember\Bilder &amp; Logos\logo sloganDD6767 .png"
         style="fill:#ffffff;fill-opacity:1;fill-rule:nonzero;stroke:none"
         d="m 2641.0819,2471.1684 c 0.1743,-0.4941 0.3487,-1.017 0.523,-1.5109 2.9632,-8.2218 6.5659,-14.1194 12.3472,-19.9589 0.2614,-0.2615 0.4938,-0.523 0.7554,-0.7845 0.1166,-0.086 0.2033,-0.1743 0.3196,-0.2905 0.9005,-0.8715 1.8593,-1.7432 2.8762,-2.6438 -0.6101,-0.3487 -0.9297,-0.6682 -1.075,-0.9296 -0.1452,-0.2325 -0.2034,-0.465 -0.1452,-0.7554 l 2.9343,-1.7723 c -0.086,0.2615 -0.1167,0.4649 0,0.6682 0,0.029 0,0.058 0.029,0.058 0,0.029 0.029,0.058 0.029,0.086 0.1743,0.2033 0.4358,0.4067 0.8133,0.6682 3.6606,-2.5276 6.9437,-4.1545 9.849,-5.2003 2.0337,-0.7554 4.2414,-1.3365 6.6819,-1.6561 -18.4773,2.1209 -32.4807,13.3061 -39.0174,31.2315 0.1452,0.4648 0.3486,0.8425 0.6973,1.2202 0.4938,0.4648 1.2202,0.9296 2.3822,1.5689 z"
         id="path9381"
         inkscape:connector-curvature="0" />
      <path
         inkscape:export-ydpi="90"
         inkscape:export-xdpi="90"
         inkscape:export-filename="C:\Users\Petter\Documents\6. Nikimember\Bilder &amp; Logos\logo sloganDD6767 .png"
         style="fill:#ffffff;fill-opacity:1;fill-rule:nonzero;stroke:none"
         d="m 2674.0566,2437.816 c -0.2615,0.058 -0.523,0.1453 -0.8135,0.2034 -0.2615,0.088 -0.523,0.1743 -0.8136,0.2615 -0.1452,0.029 -0.2904,0.088 -0.4358,0.1452 -0.2905,0.088 -0.5519,0.2034 -0.8424,0.2906 -0.1453,0.058 -0.2907,0.1167 -0.4358,0.1742 -0.2907,0.1167 -0.5522,0.2325 -0.8136,0.3487 -0.1453,0.058 -0.2904,0.1167 -0.4067,0.1743 -0.3195,0.1167 -0.6101,0.2615 -0.9005,0.4067 -0.058,0.028 -0.1167,0.058 -0.1744,0.088 -2.7019,1.2785 -5.0551,2.8762 -7.3212,4.4451 0.6681,0.2906 1.1039,0.4939 1.6268,0.6682 0.6102,0.2326 1.3075,0.4358 2.5277,0.7843 2.789,-2.9051 5.2294,-4.8806 7.3793,-6.188 2.2661,-1.3945 4.8227,-2.4986 7.6117,-2.7601 -1.8302,0.1453 -3.7768,0.3486 -5.8685,0.8715 -0.1168,0.029 -0.2035,0.058 -0.3195,0.088 z"
         id="path9383"
         inkscape:connector-curvature="0" />
      <path
         inkscape:export-ydpi="90"
         inkscape:export-xdpi="90"
         inkscape:export-filename="C:\Users\Petter\Documents\6. Nikimember\Bilder &amp; Logos\logo sloganDD6767 .png"
         style="fill:#ffffff;fill-opacity:1;fill-rule:nonzero;stroke:none"
         d="m 2679.0825,2436.9444 c 0.058,-0.028 0.1167,-0.028 0.1744,-0.028 0.4067,-0.029 0.8424,-0.058 1.2492,-0.088 0.2323,0 0.4648,0 0.6973,-0.029 -1.4817,0.029 -2.8473,0.1453 -4.1836,0.3487 0.3195,-0.058 0.639,-0.088 0.9297,-0.1167 0.4066,-0.029 0.7844,-0.058 1.133,-0.088 z"
         id="path9385"
         inkscape:connector-curvature="0" />
      <path
         inkscape:export-ydpi="90"
         inkscape:export-xdpi="90"
         inkscape:export-filename="C:\Users\Petter\Documents\6. Nikimember\Bilder &amp; Logos\logo sloganDD6767 .png"
         style="fill:#ffffff;fill-opacity:1;fill-rule:nonzero;stroke:none"
         d="m 2676.1191,2448.1878 c 2.8762,0.552 2.8762,0.552 9.7908,1.7141 0.029,-1.3363 0.058,-2.702 0,-4.0383 -0.1453,-2.9344 -0.552,-4.91 -1.1041,-6.2173 -0.029,-0.029 -0.029,-0.029 -0.029,-0.058 -0.029,-0.058 -0.058,-0.1166 -0.086,-0.2034 -0.058,-0.058 -0.086,-0.1453 -0.1166,-0.2033 -0.028,-0.028 -0.028,-0.058 -0.058,-0.086 -0.029,-0.088 -0.086,-0.1743 -0.1453,-0.2906 0,0 -0.029,0 -0.029,0 -0.1166,-0.2034 -0.2614,-0.4066 -0.4067,-0.5811 -0.6683,-0.7844 -1.4527,-1.133 -2.1789,-1.3654 -0.3197,-0.029 -0.4359,-0.058 -0.5521,-0.058 -0.1743,0.1451 -0.3486,0.4357 -0.6101,0.8425 -0.6392,1.1912 -1.9174,3.9511 -4.4741,10.5461 z"
         id="path9387"
         inkscape:connector-curvature="0" />
      <path
         inkscape:export-ydpi="90"
         inkscape:export-xdpi="90"
         inkscape:export-filename="C:\Users\Petter\Documents\6. Nikimember\Bilder &amp; Logos\logo sloganDD6767 .png"
         style="fill:#ffffff;fill-opacity:1;fill-rule:nonzero;stroke:none"
         d="m 2677.8331,2437.4673 c -0.058,0 -0.1166,0.029 -0.2032,0.058 -0.8426,0.3196 -1.685,0.7262 -2.4986,1.162 -0.058,0.029 -0.086,0.058 -0.1167,0.088 -0.086,0.029 -0.1743,0.086 -0.2324,0.1454 -1.3944,0.8134 -2.9632,2.0046 -4.7355,3.7188 -1.3363,1.2781 -2.4693,2.5564 -3.341,3.5443 1.5689,0.4067 2.4985,0.6101 3.6607,0.8716 0.9296,0.2032 1.9756,0.4067 3.5735,0.7262 1.6848,-3.5444 3.1375,-6.2463 4.3867,-8.0765 1.2202,-1.8885 2.179,-2.8472 2.8762,-2.9053 -0.8425,0.086 -1.8883,0.1743 -3.2248,0.6101 -0.058,0.029 -0.086,0.029 -0.1452,0.058 z"
         id="path9389"
         inkscape:connector-curvature="0" />
      <path
         inkscape:export-ydpi="90"
         inkscape:export-xdpi="90"
         inkscape:export-filename="C:\Users\Petter\Documents\6. Nikimember\Bilder &amp; Logos\logo sloganDD6767 .png"
         style="fill:#ffffff;fill-opacity:1;fill-rule:nonzero;stroke:none"
         d="m 2680.9419,2527.8208 0.058,0 -0.058,0 0,0 z"
         id="path9391"
         inkscape:connector-curvature="0" />
      <path
         inkscape:export-ydpi="90"
         inkscape:export-xdpi="90"
         inkscape:export-filename="C:\Users\Petter\Documents\6. Nikimember\Bilder &amp; Logos\logo sloganDD6767 .png"
         style="fill:#ffffff;fill-opacity:1;fill-rule:nonzero;stroke:none"
         d="m 2678.3853,2526.4263 c -0.028,-0.029 -0.058,-0.058 -0.1167,-0.1167 -0.086,-0.1167 -0.1744,-0.2324 -0.2615,-0.3776 -0.088,-0.086 -0.1452,-0.2034 -0.2034,-0.2905 -0.086,-0.1744 -0.1743,-0.3487 -0.2615,-0.523 -0.029,-0.029 -0.029,-0.088 -0.058,-0.1453 -0.2615,-0.5811 -0.4939,-1.2783 -0.6682,-2.0336 -0.029,-0.2324 -0.088,-0.4359 -0.1166,-0.6683 -0.029,-0.029 -0.029,-0.058 -0.029,-0.086 -0.3195,-1.685 -0.465,-3.922 -0.4358,-6.8274 -3.1955,-0.5809 -4.7936,-0.8424 -6.5076,-1.1621 -0.058,0 -0.1167,-0.029 -0.1453,-0.029 -0.1166,-0.029 -0.2034,-0.029 -0.3197,-0.058 -0.61,-0.1167 -1.2491,-0.2323 -1.9755,-0.3776 -0.2906,-0.058 -0.6101,-0.1167 -0.9587,-0.1743 1.5979,5.4038 3.893,10.6042 9.2676,13.0447 1.1913,0.5229 2.3532,0.8425 3.5154,1.1039 0.8716,0.058 1.1331,0.086 1.7723,0.1167 -1.0459,-0.1453 -1.8594,-0.6392 -2.4987,-1.3945 z"
         id="path9393"
         inkscape:connector-curvature="0" />
      <path
         inkscape:export-ydpi="90"
         inkscape:export-xdpi="90"
         inkscape:export-filename="C:\Users\Petter\Documents\6. Nikimember\Bilder &amp; Logos\logo sloganDD6767 .png"
         style="fill:#ffffff;fill-opacity:1;fill-rule:nonzero;stroke:none"
         d="m 2726.0604,2489.9946 c 0.029,-0.1744 0.058,-0.3197 0.058,-0.4649 0.2615,-2.1209 0.4941,-4.8518 0.5812,-6.9727 0,-0.086 0,-0.1744 0,-0.2323 0,-2.5859 -0.2034,-5.0843 -0.6101,-7.5539 -0.4358,-1.9755 -1.0459,-4.5031 -1.598,-6.4787 -0.058,-0.2034 -0.1166,-0.3777 -0.1743,-0.552 -0.7263,-1.8594 -1.6851,-4.1836 -2.5566,-6.0139 -0.086,-0.1742 -0.1744,-0.3486 -0.2616,-0.5229 -0.9876,-1.7141 -2.295,-3.8349 -3.3991,-5.491 -0.1166,-0.1742 -0.2324,-0.3194 -0.3487,-0.4647 -1.2201,-1.5399 -2.8471,-3.4573 -4.1831,-4.9099 -0.1452,-0.1167 -0.2615,-0.2615 -0.4067,-0.3777 -1.4528,-1.3654 -3.3702,-2.9925 -4.91,-4.2417 -0.1452,-0.086 -0.2615,-0.1743 -0.4066,-0.2905 -1.6561,-1.1041 -3.8642,-2.4695 -5.5782,-3.4572 -0.1453,-0.058 -0.2615,-0.1168 -0.3778,-0.1745 -1.8594,-0.8713 -4.2998,-1.9173 -6.1882,-2.6146 -0.4067,-0.1453 -0.8134,-0.2614 -1.2202,-0.4068 l -0.4066,-0.1167 c -0.9589,-0.2614 -3.835,-1.0459 -11.9408,-1.7722 10.4009,2.8471 6.3335,27.5127 0.4067,57.0592 -0.029,0.088 -0.029,0.1743 -0.058,0.2616 0,0.058 -0.029,0.1167 -0.029,0.1743 -0.086,0.4648 -0.2034,0.9587 -0.2905,1.4236 -0.058,0.3195 -0.1167,0.6101 -0.1743,0.9296 -0.028,0.1743 -0.086,0.3197 -0.1167,0.494 -0.581,2.9052 -1.104,5.6941 -1.5978,8.3669 -1.4817,8.1347 -2.4115,15.1364 -1.5688,19.0296 0.3775,1.8011 1.162,2.9342 2.4113,3.2248 l 0.086,0 c 16.5019,-0.6684 27.077,-7.8443 33.6426,-15.1075 l -10.4585,-17.6346 c -2.7311,-4.6485 -5.5491,-9.8781 -7.6409,-14.6717 l -0.1743,0.087 c 0.3195,5.4621 0.3777,11.0692 0.3777,18.0418 l 0,15.1942 -7.118,0 0,-42.4456 8.803,0 10.9528,18.1869 c 2.8473,4.7357 5.2874,9.6456 7.2629,14.2356 l 0.1167,0 c -0.4938,-5.665 -0.6973,-11.1268 -0.6973,-17.6347 l 0,-14.7878 7.176,0 0,27.8906 c 0.2906,-0.6682 0.494,-1.2202 0.6393,-1.656 0.1742,-0.4938 0.3486,-1.0459 0.523,-1.6269 0.5229,-1.8594 1.0748,-4.1255 1.4525,-5.9268 z"
         id="path9395"
         inkscape:connector-curvature="0" />
      <path
         inkscape:export-ydpi="90"
         inkscape:export-xdpi="90"
         inkscape:export-filename="C:\Users\Petter\Documents\6. Nikimember\Bilder &amp; Logos\logo sloganDD6767 .png"
         style="fill:#ffffff;fill-opacity:1;fill-rule:nonzero;stroke:none"
         d="m 2681,2527.8208 0.086,0.029 -0.058,-0.029 -0.029,0 z"
         id="path9397"
         inkscape:connector-curvature="0" />
      <path
         inkscape:export-ydpi="90"
         inkscape:export-xdpi="90"
         inkscape:export-filename="C:\Users\Petter\Documents\6. Nikimember\Bilder &amp; Logos\logo sloganDD6767 .png"
         style="fill:#ffffff;fill-opacity:1;fill-rule:nonzero;stroke:none"
         d="m 2668.275,2521.5745 c -0.058,-0.058 -0.086,-0.088 -0.1167,-0.1454 -0.086,-0.1166 -0.1742,-0.2324 -0.2614,-0.3485 -0.086,-0.1168 -0.2033,-0.2615 -0.2905,-0.4068 0,0 -0.029,-0.029 -0.029,-0.029 -1.3365,-1.9174 -2.5858,-4.3868 -3.6606,-7.5537 -0.6972,-0.1166 -1.3074,-0.2614 -1.8594,-0.3485 -0.1167,-0.029 -0.2324,-0.058 -0.3487,-0.086 0,0 0,0 0,0 -2.6437,-0.523 -3.8639,-0.7845 -6.7402,-1.4526 1.627,2.9924 3.5153,5.9557 6.0721,8.5415 0.029,0.058 0.058,0.088 0.1166,0.1167 0.1167,0.1453 0.2615,0.2614 0.4067,0.4068 0.1453,0.1451 0.3195,0.2904 0.465,0.4358 0.029,0.029 0.058,0.058 0.086,0.058 4.2126,3.8059 8.8029,5.4619 13.3059,6.5368 1.2203,0.1454 1.5979,0.2035 3.0506,0.3488 -4.7646,-0.9297 -7.9313,-3.1669 -10.1974,-6.0721 z"
         id="path9399"
         inkscape:connector-curvature="0" />
      <path
         inkscape:export-ydpi="90"
         inkscape:export-xdpi="90"
         inkscape:export-filename="C:\Users\Petter\Documents\6. Nikimember\Bilder &amp; Logos\logo sloganDD6767 .png"
         style="fill:#ffffff;fill-opacity:1;fill-rule:nonzero;stroke:none"
         d="m 2673.7369,2454.8118 c -0.2324,0.639 -0.4359,1.2492 -0.6101,1.8304 -0.058,0.1166 -0.086,0.2324 -0.1452,0.3775 -0.1453,0.465 -0.3196,0.9588 -0.4649,1.4526 -0.086,0.2326 -0.1453,0.4359 -0.2324,0.6684 -0.086,0.2614 -0.1452,0.5229 -0.2324,0.7843 -0.1453,0.4358 -0.2615,0.8425 -0.4068,1.2492 -0.029,0.1167 -0.058,0.2615 -0.1167,0.3778 -0.1452,0.4937 -0.2905,0.9877 -0.4358,1.4525 -0.029,0.1167 -0.058,0.2325 -0.086,0.3485 -0.1453,0.4359 -0.2615,0.8427 -0.3776,1.2785 l -0.1744,0.6101 c -0.086,0.2614 -0.1453,0.5229 -0.2324,0.7843 -0.086,0.3777 -0.2034,0.7555 -0.2905,1.1332 -0.029,0.087 -0.058,0.1452 -0.086,0.2324 -0.6972,2.6148 -1.3073,5.1422 -1.8593,7.6699 -0.029,0.086 -0.029,0.1452 -0.058,0.2324 -0.086,0.3776 -0.1452,0.7554 -0.2324,1.133 -0.058,0.2035 -0.086,0.4359 -0.1452,0.6393 -0.086,0.4067 -0.1744,0.8135 -0.2615,1.2201 1.1331,0.2324 2.0918,0.4359 2.9633,0.6101 1.2783,0.2324 2.3823,0.4649 3.5155,0.6682 0.058,0.029 0.1451,0.029 0.2033,0.029 0.029,0.029 0.058,0.029 0.086,0.029 0.1166,0.029 0.2323,0.029 0.3485,0.058 0,0 0,0 0,0 0.8714,0.1744 1.8011,0.3487 2.9051,0.5521 0,0 0.028,0 0.028,0 0.086,0.029 0.1744,0.029 0.2614,0.058 1.046,0.2034 2.2372,0.4067 3.6608,0.6682 2.7309,-14.6135 3.7477,-20.0753 4.5032,-28.5587 -7.2052,-1.2492 -7.2052,-1.2492 -10.5172,-1.8593 -0.5519,1.4817 -1.0458,2.9051 -1.5106,4.2707 l 0,0 z"
         id="path9401"
         inkscape:connector-curvature="0" />
      <path
         inkscape:export-ydpi="90"
         inkscape:export-xdpi="90"
         inkscape:export-filename="C:\Users\Petter\Documents\6. Nikimember\Bilder &amp; Logos\logo sloganDD6767 .png"
         style="fill:#ffffff;fill-opacity:1;fill-rule:nonzero;stroke:none"
         d="m 2650.1753,2474.3641 c 0.6391,-2.2661 1.3075,-4.4742 2.0918,-6.6532 2.3242,-6.5657 5.4618,-12.6667 11.0981,-19.7554 -1.2785,-0.3779 -2.0337,-0.5813 -2.7019,-0.8135 -0.6393,-0.2324 -1.1913,-0.4359 -2.0047,-0.7845 -7.5827,7.0307 -12.0276,13.7128 -15.4559,23.242 -0.058,0.1452 -0.086,0.2904 -0.1453,0.4358 -0.2034,0.581 -0.4067,1.162 -0.6101,1.7721 1.3946,0.552 2.3242,0.9008 3.3992,1.2493 1.0749,0.3486 2.2951,0.7264 4.3288,1.3074 z"
         id="path9403"
         inkscape:connector-curvature="0" />
      <path
         inkscape:export-ydpi="90"
         inkscape:export-xdpi="90"
         inkscape:export-filename="C:\Users\Petter\Documents\6. Nikimember\Bilder &amp; Logos\logo sloganDD6767 .png"
         style="fill:#ffffff;fill-opacity:1;fill-rule:nonzero;stroke:none"
         d="m 2653.0225,2473.5217 c -0.1453,0.4938 -0.2615,0.9876 -0.4067,1.4816 1.0748,0.2615 1.9464,0.4939 2.7599,0.6973 0.029,0 0.029,0 0.058,0 0.1452,0.029 0.2615,0.058 0.4066,0.1166 0.086,0 0.1453,0.029 0.2325,0.029 0.1166,0.029 0.2033,0.058 0.3197,0.086 0.086,0.029 0.1742,0.058 0.2614,0.058 0.1167,0.029 0.2615,0.058 0.3777,0.088 0.058,0.028 0.1452,0.028 0.2034,0.058 0.1451,0.029 0.3195,0.058 0.4648,0.1167 0.029,0 0.058,0 0.1167,0 0.1743,0.058 0.3776,0.086 0.5518,0.1454 0,0 0.029,0 0.029,0 0.7845,0.1743 1.627,0.3776 2.6439,0.5809 0.058,0.029 0.1452,0.029 0.2325,0.058 0.086,0.029 0.2033,0.029 0.3195,0.058 0.7263,0.1744 1.5399,0.3487 2.4695,0.5519 0.9878,-4.503 2.1209,-9.3259 4.1255,-15.3687 1.2203,-3.6026 2.7309,-7.5827 4.7064,-12.173 -1.7431,-0.3486 -2.8762,-0.5811 -3.893,-0.8135 -1.2783,-0.2615 -2.3242,-0.523 -4.0383,-0.9297 -6.5077,9.0935 -9.5583,16.6181 -11.8535,24.8399 -0.029,0.1167 -0.058,0.2034 -0.086,0.3196 z"
         id="path9405"
         inkscape:connector-curvature="0" />
      <path
         inkscape:export-ydpi="90"
         inkscape:export-xdpi="90"
         inkscape:export-filename="C:\Users\Petter\Documents\6. Nikimember\Bilder &amp; Logos\logo sloganDD6767 .png"
         style="fill:#ffffff;fill-opacity:1;fill-rule:nonzero;stroke:none"
         d="m 2669.2628,2526.252 c 0.3778,0.088 0.8425,0.2034 1.1912,0.2906 -0.8425,-0.2325 -1.656,-0.4649 -2.4695,-0.7264 0.3777,0.1743 0.552,0.2324 1.2783,0.4358 z"
         id="path9407"
         inkscape:connector-curvature="0" />
      <path
         inkscape:export-ydpi="90"
         inkscape:export-xdpi="90"
         inkscape:export-filename="C:\Users\Petter\Documents\6. Nikimember\Bilder &amp; Logos\logo sloganDD6767 .png"
         style="fill:#ffffff;fill-opacity:1;fill-rule:nonzero;stroke:none"
         d="m 2660.4018,2520.2671 c -0.1454,-0.1166 -0.2615,-0.2325 -0.4068,-0.3486 -0.1744,-0.1454 -0.3196,-0.3196 -0.494,-0.494 -0.029,0 -0.029,0 -0.029,-0.029 -2.295,-2.2081 -4.4739,-5.0262 -6.5076,-8.6868 -0.552,-0.1453 -1.0168,-0.2615 -1.4527,-0.3776 -0.086,-0.029 -0.1743,-0.058 -0.2614,-0.088 -0.029,0 -0.029,0 -0.058,0 -0.6393,-0.1742 -1.1622,-0.3197 -1.627,-0.4648 0,0 0,0 0,0 -0.1167,-0.029 -0.2325,-0.058 -0.3486,-0.1168 0,0 -0.029,0 -0.058,0 -0.086,-0.029 -0.1744,-0.058 -0.2615,-0.086 -0.029,-0.029 -0.086,-0.029 -0.1453,-0.058 -0.058,0 -0.1167,-0.029 -0.1743,-0.058 -0.058,0 -0.1167,-0.029 -0.1743,-0.058 -0.058,0 -0.1167,-0.028 -0.1453,-0.028 -0.058,-0.029 -0.1168,-0.058 -0.1744,-0.058 -0.058,-0.029 -0.1166,-0.058 -0.1743,-0.058 -0.029,-0.029 -0.058,-0.029 -0.086,-0.029 -0.4358,-0.1451 -0.9005,-0.3195 -1.4526,-0.5229 2.237,3.3703 4.8227,6.7402 8.3381,9.7617 0.029,0 0.029,0.029 0.058,0.058 0.2034,0.1743 0.4068,0.3196 0.6102,0.4939 0.1743,0.1452 0.3776,0.2905 0.5811,0.4358 0.029,0.058 0.058,0.086 0.1166,0.1166 4.9389,3.7768 10.1102,5.7234 15.1654,7.1179 1.2784,0.2324 1.6851,0.2906 3.341,0.5229 -6.1882,-1.3945 -10.6041,-3.8349 -13.9742,-6.7692 -0.086,-0.058 -0.1453,-0.1166 -0.2034,-0.1742 z"
         id="path9409"
         inkscape:connector-curvature="0" />
      <path
         inkscape:export-ydpi="90"
         inkscape:export-xdpi="90"
         inkscape:export-filename="C:\Users\Petter\Documents\6. Nikimember\Bilder &amp; Logos\logo sloganDD6767 .png"
         style="fill:#ffffff;fill-opacity:1;fill-rule:nonzero;stroke:none"
         d="m 2641.5757,2504.1429 c 0.058,0.058 0.088,0.087 0.1452,0.1452 0.029,0 0.058,0.029 0.058,0.029 0.4358,0.2904 0.9588,0.581 1.7431,0.9877 -0.2614,-0.5519 -0.4937,-1.104 -0.7261,-1.6561 -0.086,-0.2033 -0.1743,-0.3775 -0.2614,-0.5809 -0.1744,-0.4358 -0.3487,-0.8716 -0.523,-1.3073 -0.058,-0.1453 -0.086,-0.2616 -0.1454,-0.3779 -1.3073,-3.4278 -2.237,-6.8559 -2.6729,-10.72 0,-0.029 0,-0.058 0,-0.1166 -0.058,-0.5231 -0.1166,-1.104 -0.1451,-1.6561 0,-0.1166 -0.029,-0.2032 -0.029,-0.2904 -0.029,-0.523 -0.058,-1.0169 -0.058,-1.5398 0,-0.1168 0,-0.2615 0,-0.3777 0,-0.494 0,-0.9878 0,-1.4817 0,-0.087 0,-0.2034 0,-0.2905 0.029,-0.5811 0.029,-1.1622 0.086,-1.7433 0,-0.058 0,-0.086 0,-0.1451 0.1452,-2.5858 0.5229,-5.3458 1.104,-8.3963 -1.104,-0.5521 -1.8013,-1.046 -2.2371,-1.4526 -0.523,-0.4649 -0.7844,-0.9299 -0.9297,-1.5107 -1.0749,5.2585 -1.4235,7.2049 -1.2201,13.4514 0.7553,7.4664 2.7889,13.6838 5.5199,18.7966 0.086,0.088 0.1743,0.1744 0.2905,0.2325 z"
         id="path9411"
         inkscape:connector-curvature="0" />
      <path
         inkscape:export-ydpi="90"
         inkscape:export-xdpi="90"
         inkscape:export-filename="C:\Users\Petter\Documents\6. Nikimember\Bilder &amp; Logos\logo sloganDD6767 .png"
         style="fill:#ffffff;fill-opacity:1;fill-rule:nonzero;stroke:none"
         d="m 2680.9419,2527.8208 0.058,0 -0.058,0 0,0 z"
         id="path9413"
         inkscape:connector-curvature="0" />
      <path
         inkscape:export-ydpi="90"
         inkscape:export-xdpi="90"
         inkscape:export-filename="C:\Users\Petter\Documents\6. Nikimember\Bilder &amp; Logos\logo sloganDD6767 .png"
         style="fill:#ffffff;fill-opacity:1;fill-rule:nonzero;stroke:none"
         d="m 2681,2527.8208 0.086,0.029 -0.058,-0.029 -0.029,0 z"
         id="path9415"
         inkscape:connector-curvature="0" />
      <path
         inkscape:export-ydpi="90"
         inkscape:export-xdpi="90"
         inkscape:export-filename="C:\Users\Petter\Documents\6. Nikimember\Bilder &amp; Logos\logo sloganDD6767 .png"
         style="fill:#ffffff;fill-opacity:1;fill-rule:nonzero;stroke:none"
         d="m 2913.0138,2504.6948 c 0.9586,1.3364 1.9465,2.3532 3.0214,3.0505 1.0459,0.6683 2.1499,1.017 3.3411,1.017 1.8593,0 3.254,-0.7555 4.2123,-2.2662 0.9587,-1.5108 1.4235,-3.806 1.4235,-6.8851 0,-3.1958 -0.5229,-5.6072 -1.5688,-7.2051 -1.0455,-1.598 -2.5272,-2.3824 -4.4156,-2.3824 -2.2662,0 -4.2708,0.8716 -6.0139,2.5858 z m -7.2632,-2.6438 0,-20.7723 c 0,-5.1134 6.3335,-6.7694 7.2632,-6.7694 -0.087,12.9285 -0.059,11.9117 -0.087,12.9285 1.0749,-0.9586 2.208,-1.656 3.4282,-2.1209 1.2493,-0.4358 2.6438,-0.639 4.2417,-0.639 1.8594,0 3.486,0.3487 4.9677,1.0748 1.4526,0.7265 2.7019,1.7432 3.7187,3.0506 1.0168,1.3074 1.8013,2.8761 2.3532,4.7066 0.5521,1.8594 0.8426,3.8639 0.8426,6.1011 0,2.2366 -0.2614,4.2704 -0.7554,6.0716 -0.4939,1.8012 -1.1911,3.312 -2.1789,4.5613 -0.9587,1.2783 -2.1208,2.2371 -3.5444,2.9052 -1.4237,0.6684 -3.0502,1.0169 -4.8805,1.0169 -1.627,0 -3.7768,-0.1743 -5.2295,-0.6683 -1.9175,-0.6681 -3.1377,-1.133 -4.7647,-2.3531 0,0 -5.3747,-3.5736 -5.3747,-9.0936"
         id="path9417"
         inkscape:connector-curvature="0" />
    </g>
  </g>
</svg>
